<?xml version="1.0" encoding="iso-8859-1"?>
<!-- Generator: Adobe Illustrator 16.0.0, SVG Export Plug-In . SVG Version: 6.00 Build 0)  -->
<!DOCTYPE svg PUBLIC "-//W3C//DTD SVG 1.1//EN" "http://www.w3.org/Graphics/SVG/1.1/DTD/svg11.dtd">
<svg version="1.1" id="Capa_1" xmlns="http://www.w3.org/2000/svg" xmlns:xlink="http://www.w3.org/1999/xlink" x="0px" y="0px"
	 width="186.836px" height="186.837px" viewBox="0 0 186.836 186.837" style="enable-background:new 0 0 186.836 186.837;"
	 xml:space="preserve">
<g>
	<g>
		<path d="M181.266,94.053c3.25-1.271,5.562-4.41,5.562-8.125c0-4.841-3.924-8.758-8.753-8.758c-4.123,0-8.512,2.737-8.512,6.68
			c0,2.078-2.46,2.723-2.46,2.723h-5.619c-6.824-22.217-45.071-41.05-73.993-50.596c-6.642-3.368-14.397-5.408-23.205-6.067
			c-2.544-0.417-4.719-0.651-6.352-0.651c-1.947,0-3.845,0.375-5.708,0.974c-6.735,1.154-12.151,4.136-17.387,7.117
			c-3.745,2.144-7.616,4.358-12.419,6.218C2.174,51.417,0,81.037,0,93.419c0,6.829,2.15,13.148,4.083,18.775
			c1.333,3.923,2.495,7.329,2.691,10.119c1.706,23.527,28,33.361,46.819,34.695c1.429,0.341,2.865,0.569,4.342,0.569
			c17.349,0,91.761-24.457,103.182-56.056h5.979c0,0,2.469,0.289,2.517,2.93c0.093,3.863,4.417,6.468,8.464,6.468
			c4.837,0,8.761-3.923,8.761-8.769C186.829,98.457,184.516,95.327,181.266,94.053z M95.323,117.789
			c-2.172,3.281-4.406,6.672-6.346,10.351c-7.923,15.072-21.251,18.238-31.042,18.238c-16.029,0-39.148-7.707-40.391-24.854
			c-0.298-4.195-1.735-8.403-3.258-12.855c-1.717-5.029-3.484-10.211-3.484-15.257c0-7.912,1.13-34.197,15.537-39.777
			c5.558-2.158,9.993-4.697,13.902-6.935c6.107-3.492,10.944-6.248,17.694-6.248c38.946,0,47.126,28.795,47.126,52.968
			C105.061,103.054,100.324,110.215,95.323,117.789z"/>
		<path d="M57.935,46.346c-5.184,0-8.997,2.178-14.749,5.466c-4.1,2.346-8.732,4.991-14.713,7.321
			c-8.69,3.37-11.776,20.584-11.776,34.294c0,4.075,1.619,8.792,3.164,13.353c1.579,4.616,3.212,9.386,3.564,14.335
			c0.95,13.224,21.155,19.392,34.51,19.392c11.886,0,20.576-5.069,25.828-15.08c2.082-3.959,4.404-7.478,6.65-10.872
			c4.713-7.129,8.752-13.272,8.752-21.123C99.173,62.189,85.292,46.346,57.935,46.346z M49.396,100.549
			c-8.089-1.679-13.132-10.343-11.267-19.34c1.868-8.989,9.963-14.914,18.04-13.229c8.089,1.683,13.125,10.343,11.267,19.332
			C65.551,96.309,57.479,102.235,49.396,100.549z M73.33,110.6c-4.151,0-7.521-3.383-7.521-7.515c0-4.155,3.37-7.529,7.521-7.529
			c4.156,0,7.512,3.374,7.512,7.529C80.842,107.226,77.492,110.6,73.33,110.6z"/>
	</g>
</g>
<g>
</g>
<g>
</g>
<g>
</g>
<g>
</g>
<g>
</g>
<g>
</g>
<g>
</g>
<g>
</g>
<g>
</g>
<g>
</g>
<g>
</g>
<g>
</g>
<g>
</g>
<g>
</g>
<g>
</g>
</svg>
