<?xml version="1.0" encoding="iso-8859-1"?>
<!-- Generator: Adobe Illustrator 16.0.0, SVG Export Plug-In . SVG Version: 6.00 Build 0)  -->
<!DOCTYPE svg PUBLIC "-//W3C//DTD SVG 1.1//EN" "http://www.w3.org/Graphics/SVG/1.1/DTD/svg11.dtd">
<svg version="1.1" id="Capa_1" xmlns="http://www.w3.org/2000/svg" xmlns:xlink="http://www.w3.org/1999/xlink" x="0px" y="0px"
	 width="87.689px" height="87.689px" viewBox="0 0 87.689 87.689" style="enable-background:new 0 0 87.689 87.689;"
	 xml:space="preserve">
<g>
	<g>
		<path d="M80.063,54.748c-5.564-4.291-12.572-4.723-16.699-1.355l-9.596-4.736c12.237-8.588,22.209-14.938,22.449-15.091
			l-2.04-3.22C72.624,31.321,48.614,46.61,29.21,62.16l-0.116-0.458c-9.26,2.327-27.711,4.12-27.897,4.134l0.365,3.802
			c0.617-0.058,12.525-1.222,22.115-2.916C15.313,73.81,8.469,80.674,5.76,85.944l3.388,1.745
			c4.695-9.144,23.606-24.02,40.157-35.864L50.1,58.55c-5.441,1.304-9.213,7.642-8.574,14.958
			c0.696,7.871,6.22,13.819,12.339,13.278c6.118-0.534,10.52-7.357,9.828-15.229c-0.075-0.842-0.232-1.656-0.411-2.447
			c0.911,1.167,1.944,2.283,3.203,3.255c6.263,4.825,14.384,4.798,18.131-0.072C88.366,67.427,86.319,59.573,80.063,54.748z
			 M53.769,48.66l-0.814,1.639l-0.113-0.985C53.155,49.095,53.46,48.875,53.769,48.66z M51.167,82.303
			c-2.06-1.427-8.293-6.532-4.946-13.9c0,0-0.95,6.361,5.569,14.312C51.79,82.721,51.554,82.577,51.167,82.303z M53.919,58.465
			l-0.685-5.805l7.741,3.816c-0.891,1.893-1.075,4.062-0.657,6.272C58.593,60.524,56.376,58.978,53.919,58.465z M82.288,68.357
			c-3.183-9.776-9.055-12.401-9.055-12.401c8.008,1.149,8.949,9.154,9.048,11.659C82.295,68.084,82.288,68.357,82.288,68.357z"/>
		<path d="M46.451,47.605l0.972-0.927c-0.985,0.94-15.668-22.194-15.668-22.194v-0.799c3.906,7.464,14.55,18.613,17.305,21.426
			l1.752-1.677c-0.172-1.335-0.438-2.543-0.691-3.751l1.362,0.031C69.161,16.646,52.522,0,52.522,0
			c-8.479,7.839-11.803,15.104-12.592,21.218c-7.7-6.559-16.468-6.598-16.468-6.598C22.192,47.068,46.451,47.605,46.451,47.605z
			 M51.413,12.84l0.562-0.562c-1.998,6.393-2.628,17.414-2.826,23.658c-0.473-1.528-1-2.947-1.588-4.261
			C48.97,23.781,51.413,12.84,51.413,12.84z"/>
	</g>
</g>
<g>
</g>
<g>
</g>
<g>
</g>
<g>
</g>
<g>
</g>
<g>
</g>
<g>
</g>
<g>
</g>
<g>
</g>
<g>
</g>
<g>
</g>
<g>
</g>
<g>
</g>
<g>
</g>
<g>
</g>
</svg>
