<?xml version="1.0" encoding="iso-8859-1"?>
<!-- Generator: Adobe Illustrator 18.0.0, SVG Export Plug-In . SVG Version: 6.00 Build 0)  -->
<!DOCTYPE svg PUBLIC "-//W3C//DTD SVG 1.1//EN" "http://www.w3.org/Graphics/SVG/1.1/DTD/svg11.dtd">
<svg version="1.1" id="Capa_1" xmlns="http://www.w3.org/2000/svg" xmlns:xlink="http://www.w3.org/1999/xlink" x="0px" y="0px"
	 viewBox="0 0 48.056 48.056" style="enable-background:new 0 0 48.056 48.056;" xml:space="preserve">
<g>
	<path style="fill:#1D1D1B;" d="M41.048,12.153c-1.771-1.705-3.981-2.562-6.157-2.423c-0.018-0.047-0.031-0.093-0.063-0.139
		c-1.484-2.156-4.499-3.263-7.151-3.766c0.244-1.272,0.58-2.527,1.066-3.778c0.126-0.324-0.135-0.56-0.418-0.589
		c-0.584-0.423-1.357-0.582-2.045-0.77c-0.959-0.261-1.926-0.498-2.903-0.681c-0.399-0.075-0.723,0.508-0.298,0.707
		c0.185,0.086,0.374,0.161,0.56,0.243c-0.141,0.047-0.265,0.149-0.314,0.328c-0.393,1.438-0.418,2.982-0.217,4.455
		c0.101,0.736,0.252,1.455,0.49,2.159c0.114,0.338,0.223,0.731,0.388,1.048c-0.587-0.008-1.176,0.139-1.698,0.429
		c-0.348,0.193-0.684,0.498-0.932,0.851c-1.691-0.832-3.238-1.417-4.659-1.795c0.958-0.312,2.496-0.914,2.807-0.996
		c1.112-0.294,2.266-0.375,3.377-0.665c0.426-0.111,0.427-0.753,0-0.864c-2.126-0.553-5.589,0.184-7.2,1.761
		c-0.146,0.143-0.22,0.307-0.261,0.47C-5.56,4.239,5.029,50.744,19.078,46.888c0.483,0.294,0.993,0.553,1.557,0.734
		c2.354,0.756,4.385,0.474,6.118-0.45c3.569,1.61,8.797-4.223,10.766-6.589c3.592-4.314,5.876-9.739,6.674-15.283
		C44.834,20.834,44.518,15.493,41.048,12.153z M30.407,8.124c0.991,0.546,1.832,1.317,2.758,1.939
		c-0.727,0.234-1.437,0.583-2.107,1.068c-0.822-1.222-2.368-1.907-3.817-2.05c0.061-0.767,0.155-1.52,0.269-2.268
		C28.508,7.172,29.472,7.609,30.407,8.124z M22.583,11.111c0.001-0.002,0.002-0.005,0.003-0.007
		c0.135-0.268,0.292-0.478,0.503-0.691c0.292-0.294,0.659-0.452,1.051-0.516c0.037,0.036,0.079,0.068,0.123,0.084
		c0.254,0.098,0.352,0.063,0.631,0.016c0.291-0.049,0.428-0.347,0.459-0.602c0.13-1.095-0.519-2.274-0.738-3.348
		c-0.316-1.55-0.289-3.057-0.288-4.628c0-0.067-0.014-0.126-0.034-0.18c0.49,0.202,0.984,0.396,1.479,0.59
		c0.541,0.212,1.11,0.452,1.688,0.563c-0.537,1.017-0.917,2.102-1.135,3.216c-0.025-0.003-0.052-0.008-0.076-0.011
		c-0.45-0.053-0.524,0.663-0.105,0.777c0.019,0.005,0.037,0.012,0.056,0.017c-0.144,1.195-0.096,2.416,0.194,3.622
		c0.108,0.45,0.752,0.326,0.777-0.105c0.001-0.023,0.005-0.046,0.006-0.069c0.997,0.29,1.724,0.861,2.385,1.606
		c-0.962,0.339-1.875,0.799-2.991,0.844c-1.417,0.058-2.787-0.278-4.031-0.923C22.59,11.289,22.601,11.199,22.583,11.111z
		 M5.578,24.643c-0.709-4.226-1.185-8.877,1.973-12.228c3.662-3.887,8.781-2.747,13.386-1.438
		c-7.356,0.864-10.627,6.723-9.827,14.282c0.558,5.268,1.707,11.393,3.787,16.299c0.591,1.395,1.37,2.745,2.388,3.851
		C9.18,44.654,6.653,31.054,5.578,24.643z M20.445,45.815c-0.105-0.319-0.435-0.597-0.818-0.524
		c-0.038,0.007-0.074,0.009-0.112,0.016c-0.444-0.293-0.878-0.644-1.291-1.094c-3.312-3.604-3.845-9.983-4.795-14.571
		c-0.736-3.555-1.433-7.425-0.341-10.985c1.237-4.033,4.54-5.603,8.12-6.782c0.171,0.175,0.435,0.194,0.667,0.116
		c1.352,1.088,2.924,1.732,4.697,1.772c1.347,0.031,3.237-0.256,4.314-1.242c0.14-0.026,0.266-0.099,0.36-0.203
		c-0.009,0.155,0.056,0.31,0.232,0.399c5.09,2.549,2.172,16.247,1.379,20.303c-0.551,2.819-1.148,6.083-2.733,8.503
		C28.049,44.69,23.985,47.312,20.445,45.815z M41.215,29.885c-1.59,4.969-6.377,13.841-12.303,15.681
		c2.927-2.852,4.697-7.584,5.465-11.125c1.185-5.463,1.953-11.601,1.226-17.165c-0.325-2.484-1.205-4.728-3.76-5.427
		c-0.058-0.016-0.109-0.002-0.163,0.004c5.95-2.324,10.399,3.259,10.809,8.767C42.72,23.725,42.158,26.936,41.215,29.885z"/>
</g>
<g>
</g>
<g>
</g>
<g>
</g>
<g>
</g>
<g>
</g>
<g>
</g>
<g>
</g>
<g>
</g>
<g>
</g>
<g>
</g>
<g>
</g>
<g>
</g>
<g>
</g>
<g>
</g>
<g>
</g>
</svg>
