<?xml version="1.0" encoding="utf-8"?>
<!-- Generator: Adobe Illustrator 16.0.0, SVG Export Plug-In . SVG Version: 6.00 Build 0)  -->
<!DOCTYPE svg PUBLIC "-//W3C//DTD SVG 1.1//EN" "http://www.w3.org/Graphics/SVG/1.1/DTD/svg11.dtd">
<svg version="1.1" id="Layer_1" xmlns="http://www.w3.org/2000/svg" xmlns:xlink="http://www.w3.org/1999/xlink" x="0px" y="0px"
	 width="512px" height="512px" viewBox="0 0 512 512" enable-background="new 0 0 512 512" xml:space="preserve">
<g>
	<path d="M498.796,208.869l-23.586-62.37c-2.466-6.51-8.066-11.296-14.859-12.732c-6.801-1.385-13.812,0.742-18.669,5.721
		l-35.49,36.383c-10.343-13.38-23.5-24.482-39.193-31.564c-25.191-11.362-53.862-12.264-79.705-2.482L71.241,223.512
		c-3.912,0.72-7.796,1.663-11.6,3.101c-43.142,16.327-61.54,73.83-40.998,128.19c20.547,54.311,72.385,85.271,115.545,68.945
		c3.712-1.405,7.167-3.216,10.504-5.201l216.293-81.793c43.899-16.6,70.019-59.655,67.13-104.18l50.164,3.774
		c6.924,0.483,13.619-2.563,17.8-8.106C500.23,222.681,501.254,215.381,498.796,208.869z M128.427,408.486
		c-34.813,13.168-77.133-13.473-94.522-59.452c-17.405-46.043-3.295-94.007,31.515-107.173c34.813-13.152,77.149,13.487,94.556,59.5
		C177.363,347.374,163.238,395.336,128.427,408.486z"/>
	<path d="M90.082,279.617c-2.513-6.656-9.935-10.024-16.582-7.494c-6.649,2.498-9.976,9.928-7.463,16.566
		c2.498,6.641,9.919,9.993,16.575,7.478C89.246,293.67,92.589,286.241,90.082,279.617z"/>
	<path d="M60.648,321.517c-6.64,2.513-9.985,9.927-7.478,16.599c2.505,6.608,9.929,9.962,16.583,7.463
		c6.631-2.53,9.985-9.929,7.47-16.55C74.711,322.37,67.28,319.019,60.648,321.517z"/>
	<path d="M104.188,350.774c-6.641,2.497-10.001,9.943-7.488,16.583c2.515,6.625,9.937,9.961,16.57,7.446
		c6.647-2.498,9.999-9.926,7.494-16.551C118.249,351.596,110.828,348.243,104.188,350.774z"/>
	<path d="M114.503,302.686c-6.633,2.498-9.985,9.928-7.48,16.583c2.507,6.624,9.937,9.976,16.576,7.461
		c6.64-2.513,9.992-9.927,7.485-16.55C128.58,303.508,121.15,300.172,114.503,302.686z"/>
</g>
</svg>
