<?xml version="1.0" encoding="iso-8859-1"?>
<!-- Generator: Adobe Illustrator 18.1.1, SVG Export Plug-In . SVG Version: 6.00 Build 0)  -->
<svg version="1.1" id="Capa_1" xmlns="http://www.w3.org/2000/svg" xmlns:xlink="http://www.w3.org/1999/xlink" x="0px" y="0px"
	 viewBox="0 0 42.656 42.656" style="enable-background:new 0 0 42.656 42.656;" xml:space="preserve">
<g>
	<g id="b68_blood_sausage">
		<path style="fill:#030104;" d="M40.726,26.064c-0.211-0.086-0.416-0.135-0.619-0.19c0.486-1.216,0.403-2.633-0.355-3.817
			c-4.113-6.418-11.117-10.251-18.73-10.251c-7.199,0-13.985,3.513-18.153,9.393c-1.07,1.512-0.981,3.479,0.055,4.897
			c-0.158-0.01-0.321-0.012-0.489-0.006C1.07,26.134-0.019,26.642,0,27.22c0.022,0.58,1.143,1.012,2.504,0.967
			c0.102-0.002,0.194-0.016,0.291-0.021c-0.268,1.139-0.12,2.115,0.377,2.268c0.555,0.17,1.328-0.746,1.73-2.049
			c0.078-0.262,0.134-0.519,0.174-0.763c1.681,0.511,3.565-0.058,4.639-1.571c2.597-3.662,6.822-5.85,11.306-5.85
			c4.74,0,9.104,2.389,11.667,6.387c0.8,1.247,2.154,1.93,3.536,1.93c0.698,0,1.396-0.201,2.04-0.565
			c-0.015,0.125-0.03,0.248-0.034,0.377c-0.07,1.36,0.34,2.49,0.918,2.519c0.58,0.029,1.104-1.049,1.179-2.412
			c0.004-0.103,0.002-0.201,0.002-0.303c1.107,0.356,2.098,0.315,2.294-0.166C42.837,27.427,41.989,26.577,40.726,26.064z"/>
	</g>
</g>
<g>
</g>
<g>
</g>
<g>
</g>
<g>
</g>
<g>
</g>
<g>
</g>
<g>
</g>
<g>
</g>
<g>
</g>
<g>
</g>
<g>
</g>
<g>
</g>
<g>
</g>
<g>
</g>
<g>
</g>
</svg>
