<?xml version="1.0" encoding="iso-8859-1"?>
<!-- Generator: Adobe Illustrator 18.1.1, SVG Export Plug-In . SVG Version: 6.00 Build 0)  -->
<svg version="1.1" id="Capa_1" xmlns="http://www.w3.org/2000/svg" xmlns:xlink="http://www.w3.org/1999/xlink" x="0px" y="0px"
	 viewBox="0 0 612.001 612.001" style="enable-background:new 0 0 612.001 612.001;" xml:space="preserve">
<g>
	<g>
		<path d="M310.64,253.111c-2.403-2.065-6.447-3.348-10.553-3.348c-1.947,0-3.88,0.275-5.747,0.819l-30.821,10.047
			c-3.438,0.914-6.618,4.093-6.276,8.64c0.38,5.075,2.747,18.993,2.966,20.276c0.979,6.783-0.927,13.529-5.233,18.515
			c-4.262,4.933-10.517,7.764-17.161,7.764c-4.222,0-8.392-1.098-12.393-3.264l-33.236-17.992c-0.686-0.379-2.582-1.285-5.023-1.285
			c-1.706,0-3.377,0.447-4.835,1.298c-8.086,4.722-32.903,17.816-33.209,17.977c-4.006,2.167-8.177,3.266-12.399,3.266
			c-6.645,0-12.899-2.83-17.16-7.764c-4.322-5.003-6.225-11.776-5.223-18.603c0.02-0.139,2.002-13.898,2.71-18.429
			c0.696-4.444-1.946-8.162-4.871-9.875l-0.558-0.326l-31.245-10.19l-0.206-0.064c-1.573-0.45-3.235-0.678-4.944-0.678
			c-5.3,0-10.199,2.215-12.702,4.41C22.788,289.127,0,339.042,0,391.252c0,101.255,84.008,183.63,187.267,183.63
			c103.258,0,187.266-82.377,187.266-183.63C374.533,338.358,351.246,288.008,310.64,253.111z"/>
		<path d="M97.891,235.159l42.152,13.745c0.152,0.049,0.285,0.124,0.391,0.198l-4.849,32.982c-0.371,2.524,0.258,4.878,1.77,6.628
			c2.499,2.894,6.862,3.457,10.999,1.219l37.171-20.124c0.156-0.084,0.772-0.303,1.742-0.303s1.586,0.22,1.742,0.303l37.172,20.124
			c1.719,0.93,3.435,1.402,5.103,1.402c2.343,0,4.437-0.931,5.897-2.621c1.511-1.751,2.14-4.105,1.769-6.63l-4.849-32.981
			c0.106-0.074,0.239-0.149,0.392-0.198l42.152-13.745c5.675-1.851,6.288-5.792,6.288-7.402s-0.613-5.551-6.288-7.402
			l-42.152-13.745c-0.152-0.049-0.285-0.125-0.391-0.199l4.849-32.982c0.371-2.524-0.257-4.877-1.769-6.627
			c-2.499-2.894-6.862-3.454-11-1.219l-25.106,13.591c8.227-22.934,22.313-46.174,46.399-56.599
			c6.079-2.63,8.875-9.693,6.244-15.772c-2.632-6.079-9.693-8.873-15.772-6.244c-35.121,15.199-53.197,49.288-62.501,79.69
			l-27.091-14.666c-4.135-2.236-8.501-1.676-10.999,1.219c-1.511,1.75-2.14,4.105-1.769,6.628l4.849,32.982
			c-0.106,0.074-0.239,0.149-0.392,0.198l-42.151,13.745c-5.676,1.851-6.289,5.792-6.289,7.402S92.216,233.308,97.891,235.159z"/>
		<path d="M391.639,142.83l31.754,10.355l-3.584,24.372c-0.344,2.347,0.254,4.553,1.684,6.21c1.371,1.586,3.406,2.496,5.586,2.496
			c1.517,0,3.062-0.421,4.59-1.247l28.634-15.504c0.066-0.025,0.344-0.101,0.757-0.101c0.398,0,0.673,0.071,0.692,0.071
			c0,0,0,0,0.001,0l28.695,15.533c1.529,0.828,3.074,1.249,4.592,1.249c2.179,0,4.216-0.91,5.586-2.496
			c1.43-1.656,2.028-3.862,1.684-6.211l-3.584-24.371l31.754-10.355c5.38-1.755,5.798-5.813,5.798-7.015s-0.419-5.26-5.798-7.015
			l-31.754-10.355l3.584-24.372c0.344-2.347-0.254-4.553-1.684-6.21c-1.371-1.586-3.407-2.496-5.586-2.496
			c-1.517,0-3.062,0.421-4.59,1.247L470.531,97.4c-7.323-22.94-21.208-48.143-47.538-59.537c-4.563-1.977-9.857,0.122-11.828,4.683
			c-1.974,4.56,0.124,9.856,4.683,11.828c18.3,7.92,29.147,25.459,35.573,42.933l-19.751-10.691
			c-1.529-0.828-3.074-1.249-4.592-1.249c-2.179,0-4.216,0.91-5.586,2.496c-1.43,1.656-2.028,3.862-1.684,6.211l3.584,24.371
			L391.639,128.8c-5.38,1.755-5.798,5.813-5.798,7.015S386.259,141.075,391.639,142.83z"/>
		<path d="M560.49,157.184c-3.162-2.716-9.087-3.735-14.149-2.262l-24.653,8.035c-3.224,0.874-6.195,3.871-5.874,8.153
			c0.307,4.075,2.119,14.76,2.383,16.309c0.726,5.074-0.696,10.113-3.907,13.83c-3.18,3.681-7.851,5.792-12.813,5.792
			c-3.174,0-6.318-0.829-9.337-2.464l-26.56-14.381c-0.723-0.402-2.407-1.18-4.605-1.18c-1.577,0-3.125,0.416-4.474,1.204
			c-6.442,3.762-26.264,14.219-26.519,14.354c-3.024,1.636-6.168,2.467-9.343,2.467c-4.962,0-9.632-2.111-12.812-5.79
			c-3.225-3.736-4.647-8.804-3.895-13.919c0.016-0.112,1.599-11.106,2.165-14.72c0.642-4.112-1.782-7.544-4.473-9.121l-0.559-0.326
			l-25.109-8.188l-0.206-0.064c-1.365-0.391-2.806-0.589-4.285-0.589c-4,0-8.298,1.501-10.95,3.824
			c-16.639,14.584-30.029,32.995-38.722,53.241c-5.141,11.978,5.366,21.01,8.82,23.978c44.252,38.032,70.509,94.904,72.041,156.034
			c0.264,10.541,6.098,16.144,11.016,17.738c15.253,4.942,31.196,7.449,47.389,7.449c83.229,0,150.94-66.407,150.94-148.032
			C612,225.913,593.227,185.321,560.49,157.184z"/>
	</g>
</g>
<g>
</g>
<g>
</g>
<g>
</g>
<g>
</g>
<g>
</g>
<g>
</g>
<g>
</g>
<g>
</g>
<g>
</g>
<g>
</g>
<g>
</g>
<g>
</g>
<g>
</g>
<g>
</g>
<g>
</g>
</svg>
